<svg width="30" height="30" viewBox="0 0 30 30" fill="none" xmlns="http://www.w3.org/2000/svg">
<circle cx="15" cy="15" r="13.5" fill="white" stroke="#E20613" stroke-width="3"/>
<path d="M15.0044 23C12.3198 18.3516 9.67006 13.6768 7 9.01662C8.71418 9.01662 10.4313 8.99902 12.1455 9.01662C13.5982 11.6561 15.1409 14.2369 16.6052 16.8647C17.7877 14.8117 18.9586 12.7383 20.144 10.6795C19.7024 10.6795 19.2724 10.6795 18.8162 10.6795C18.1683 11.8145 17.2648 13.4011 16.6081 14.5331C16.3021 13.9759 15.9864 13.4226 15.661 12.8732C16.3118 11.7353 17.227 10.1516 17.872 9.00782C19.5804 8.99022 21.2916 9.00782 23 9.00782C20.3309 13.6709 17.6657 18.335 15.0044 23ZM9.85019 10.6824C9.85019 10.6824 13.2873 16.6858 14.9985 19.6889C15.2106 19.2989 15.4344 18.9117 15.661 18.5305C14.1705 15.9174 11.1838 10.6912 11.1838 10.6912L9.85019 10.6824Z" fill="#E20613"/>
</svg>
