<svg width="42" height="42" viewBox="0 0 42 42" fill="none" xmlns="http://www.w3.org/2000/svg">
<circle cx="21" cy="21" r="19" fill="#E20613" stroke="#E20613" stroke-width="4"/>
<path d="M21.006 32C17.3147 25.3594 13.6713 18.6811 10 12.0237C12.357 12.0237 14.718 11.9986 17.075 12.0237C19.0725 15.7944 21.1938 19.4813 23.2072 23.2353C24.8331 20.3025 26.4431 17.3404 28.073 14.3993C27.4658 14.3993 26.8745 14.3993 26.2473 14.3993C25.3565 16.0207 24.114 18.2873 23.2112 19.9045C22.7904 19.1084 22.3563 18.318 21.9088 17.5331C22.8037 15.9076 24.0621 13.6451 24.949 12.0112C27.298 11.986 29.651 12.0112 32 12.0112C28.33 18.6727 24.6653 25.3357 21.006 32ZM13.919 14.4035C13.919 14.4035 18.645 22.9797 20.998 27.2699C21.2896 26.7127 21.5972 26.1596 21.9088 25.615C19.8594 21.882 15.7527 14.416 15.7527 14.416L13.919 14.4035Z" fill="white"/>
</svg>
