<svg width="71" height="72" viewBox="0 0 71 72" fill="none" xmlns="http://www.w3.org/2000/svg">
<path d="M66.3696 25.0435H61.7391V17.2174C61.7391 14.6285 59.6601 12.5217 57.1072 12.5217H13.8913C11.3384 12.5217 9.26087 14.6285 9.26087 17.2174V25.0435H4.62889C2.07752 25.0435 0 27.1503 0 29.7391V48.5217V56.3478C0 58.0743 1.3845 59.4783 3.08696 59.4783H9.26087C10.9633 59.4783 12.3478 58.0743 12.3478 56.3478V50.0869H58.6522V56.3478C58.6522 58.0743 60.0367 59.4783 61.7391 59.4783H67.913C69.6155 59.4783 71 58.0743 71 56.3478V48.5217V29.7391C71 27.1503 68.9225 25.0435 66.3696 25.0435ZM12.3478 17.2174C12.3478 16.3549 13.0393 15.6522 13.8913 15.6522H57.1072C57.9592 15.6522 58.6522 16.3549 58.6522 17.2174V25.0435H12.3478V17.2174ZM9.26087 56.3478H3.08696V50.0869H9.26087V56.3478ZM67.913 56.3478H61.7391V50.0869H67.913V56.3478ZM67.913 46.9565H60.1957H10.8043H3.08696V37.5652H67.913V46.9565ZM67.913 34.4348H3.08696V29.7391C3.08696 28.8767 3.77843 28.1739 4.62889 28.1739H10.8043H60.1957H66.3696C67.2216 28.1739 67.913 28.8767 67.913 29.7391V34.4348Z" fill="#202020"/>
</svg>
