<svg width="92" height="80" viewBox="0 0 92 80" fill="none" xmlns="http://www.w3.org/2000/svg">
<g clip-path="url(#clip0)">
<path d="M87.2346 8.28057L71.3236 1.65182C69.5782 0.924859 67.5764 0.925038 65.8312 1.652L58.1919 4.83397C57.5091 5.11861 57.1861 5.90254 57.4705 6.58539C57.755 7.26825 58.5389 7.59147 59.2219 7.30682L66.8612 4.12468C67.9514 3.67039 69.2027 3.67022 70.2937 4.1245L86.2039 10.7529C87.7514 11.3984 88.7516 12.85 88.7516 14.4506V71.7274C88.7516 73.9547 86.8386 75.7666 84.4873 75.7666H82.3159C81.576 75.7666 80.9766 76.3661 80.9766 77.1059C80.9766 77.8457 81.576 78.4452 82.3159 78.4452H84.4873C88.3155 78.4452 91.4302 75.4316 91.4302 71.7274V14.4506C91.4302 11.7656 89.7834 9.34379 87.2346 8.28057Z" fill="#ED2024"/>
<path d="M76.4768 75.7669H53.9732C54.8998 74.7137 55.4071 73.3775 55.4071 71.9634C55.4071 70.5521 54.8962 69.2587 54.0509 68.2559C54.5839 67.9839 55.0775 67.628 55.5132 67.1925C56.6011 66.1044 57.2 64.6578 57.2 63.1187C57.2 61.6516 56.6479 60.3116 55.7416 59.2934C56.1904 59.0393 56.6082 58.7243 56.9825 58.3496C58.0704 57.2619 58.6695 55.8153 58.6695 54.2759C58.6695 52.813 58.1207 51.4764 57.2196 50.4591C57.6759 50.203 58.1009 49.8841 58.482 49.5039C59.5691 48.4143 60.1677 46.968 60.1677 45.431C60.1677 42.2535 57.5834 39.6685 54.4068 39.6685H48.4014V14.4507C48.4014 12.85 49.4016 11.3984 50.9484 10.7532L53.3843 9.73891C54.0671 9.45462 54.3902 8.67069 54.1059 7.98766C53.8214 7.3048 53.0375 6.98123 52.3546 7.26605L49.9179 8.28069C47.3695 9.34373 45.7229 11.7657 45.7229 14.4507V39.6687H40.127C41.9904 33.7802 41.8318 27.6346 39.6571 20.5019C39.3268 19.4218 38.6696 18.4966 37.7562 17.8264C36.8482 17.1603 35.7721 16.808 34.6441 16.808C33.1909 16.808 31.8396 17.3884 30.8389 18.4421C29.8387 19.4957 29.3295 20.875 29.4048 22.3257C29.8236 30.3787 26.1089 33.1505 20.9677 36.9871C19.275 38.2502 17.425 39.6316 15.6068 41.3257V39.5703C15.6068 38.8305 15.0073 38.231 14.2675 38.231H1.33929C0.599464 38.231 0 38.8305 0 39.5703V77.5543C0 78.2941 0.599464 78.8935 1.33929 78.8935H14.2679C15.0077 78.8935 15.6071 78.2941 15.6071 77.5543V74.185C18.1509 74.4269 20.0087 74.9339 21.8137 76.3173C22.9987 77.2255 24.4595 77.7257 25.9268 77.7257H49.5466C50.5116 78.196 51.5814 78.4453 52.6659 78.4453H76.4766C77.2164 78.4453 77.8159 77.8459 77.8159 77.106C77.8159 76.3662 77.2164 75.7669 76.4768 75.7669ZM23.4432 74.1912C20.9179 72.256 18.2189 71.7184 15.6071 71.4928V55.8544C15.6071 55.1146 15.0077 54.5152 14.2679 54.5152C13.528 54.5152 12.9286 55.1146 12.9286 55.8544V76.2151H2.67857V40.9098H12.9286V50.0189C12.9286 50.7587 13.528 51.3582 14.2679 51.3582C15.0077 51.3582 15.6071 50.7587 15.6071 50.0189V45.1305C17.8475 42.6582 20.2464 40.868 22.57 39.1341C27.7145 35.2953 32.5734 31.6693 32.0804 22.1868C32.0434 21.4769 32.2925 20.8021 32.7821 20.2866C33.2718 19.7707 33.9332 19.4868 34.6446 19.4868C35.1987 19.4868 35.7268 19.6594 36.172 19.9862C36.6164 20.3123 36.9359 20.7616 37.0959 21.2846C39.3107 28.5498 39.2761 34.6623 36.9868 40.521C36.8257 40.9332 36.8787 41.3982 37.1282 41.7637C37.3777 42.1293 37.7916 42.3478 38.2341 42.3478H54.4071C56.1068 42.3478 57.4895 43.7312 57.4895 45.4318C57.4895 46.2541 57.1686 47.0285 56.588 47.6105C56.0041 48.193 55.2298 48.5139 54.4071 48.5139H48.9054C48.1655 48.5139 47.5661 49.1134 47.5661 49.8532C47.5661 50.593 48.1655 51.1925 48.9054 51.1925H52.9089C54.6084 51.1925 55.9911 52.5759 55.9911 54.2766C55.9911 55.1003 55.6707 55.8744 55.0886 56.4564C54.5068 57.0384 53.7327 57.3587 52.9089 57.3587H48.9054C48.1655 57.3587 47.5661 57.9582 47.5661 58.698C47.5661 59.4378 48.1655 60.0373 48.9054 60.0373H51.4391C53.1387 60.0373 54.5214 61.42 54.5214 63.1194C54.5214 63.943 54.2009 64.7173 53.6191 65.2993C53.0359 65.8825 52.2616 66.2034 51.4391 66.2034H49.6462H47.4355C46.6957 66.2034 46.0962 66.8028 46.0962 67.5427C46.0962 68.2825 46.6957 68.8819 47.4355 68.8819H49.6462C51.3459 68.8819 52.7286 70.2646 52.7286 71.9641C52.7286 72.7877 52.4077 73.5627 51.8273 74.1444C51.2834 74.6871 50.4241 75.0334 49.7811 75.0448C49.7366 75.0455 25.9268 75.048 25.9268 75.048C25.0454 75.0471 24.1632 74.7432 23.4432 74.1912Z" fill="#ED2024"/>
<path d="M73.4071 15.0456C73.4071 12.2313 71.1174 9.94165 68.3031 9.94165C65.4889 9.94165 63.1992 12.2313 63.1992 15.0456C63.1992 17.8599 65.4889 20.1495 68.3031 20.1495C71.1174 20.1495 73.4071 17.8599 73.4071 15.0456ZM65.8778 15.0456C65.8778 13.7083 66.9658 12.6202 68.3031 12.6202C69.6405 12.6202 70.7285 13.7083 70.7285 15.0456C70.7285 16.3829 69.6405 17.4709 68.3031 17.4709C66.9658 17.4709 65.8778 16.3831 65.8778 15.0456Z" fill="#ED2024"/>
<path d="M69.1408 60.744H66.7388C65.4737 60.744 64.4444 59.7145 64.4444 58.4494C64.4444 57.7095 63.8449 57.1101 63.1051 57.1101C62.3653 57.1101 61.7658 57.7095 61.7658 58.4494C61.7658 61.1453 63.9222 63.3453 66.6004 63.419V66.3829C66.6004 67.1228 67.1999 67.7222 67.9397 67.7222C68.6796 67.7222 69.279 67.1228 69.279 66.3829V63.419C71.9574 63.3453 74.1138 61.1453 74.1138 58.4494V56.5953C74.1138 54.8751 73.0147 53.3624 71.3787 52.8306L65.3287 50.8654C64.7997 50.6935 64.4444 50.2045 64.4444 49.6485V46.9936C64.4444 45.9661 65.2803 45.1301 66.3078 45.1301H69.5721C70.5996 45.1301 71.4354 45.9661 71.4354 46.9936C71.4354 47.7335 72.0349 48.3329 72.7747 48.3329C73.5146 48.3329 74.114 47.7335 74.114 46.9936C74.114 44.4892 72.0765 42.4515 69.5721 42.4515H69.279V39.4911C69.279 38.7513 68.6796 38.1519 67.9397 38.1519C67.1999 38.1519 66.6004 38.7513 66.6004 39.4911V42.4515H66.3076C63.8033 42.4515 61.7656 44.489 61.7656 46.9936V49.6485C61.7656 51.3686 62.8647 52.8813 64.5008 53.4129L70.5506 55.3781C71.0797 55.5501 71.4351 56.0392 71.4351 56.5953V58.4494C71.4354 59.7145 70.406 60.744 69.1408 60.744Z" fill="#ED2024"/>
</g>
<defs>
<clipPath id="clip0">
<rect width="91.4299" height="80" fill="white"/>
</clipPath>
</defs>
</svg>
