<svg width="70" height="50" viewBox="0 0 70 50" fill="none" xmlns="http://www.w3.org/2000/svg">
<g clip-path="url(#clip0)">
<path d="M67.6235 22.3564L62.8569 20.3099L58.8092 12.4957C57.7153 10.3561 55.4961 9.02279 53.0737 9.03829H46.1035V7.08476C46.1035 3.5498 43.2592 0.666016 39.696 0.666016H6.37671C2.81349 0.666016 0.000415833 3.5653 0.000415833 7.08476V37.0079C-0.0308405 39.163 1.70389 40.9305 3.8762 40.9615C3.89183 40.9615 3.90746 40.9615 3.93872 40.9615H4.76701C4.76701 41.1165 4.75138 41.1785 4.75138 41.2715C4.73575 45.7057 8.34586 49.3182 12.8155 49.3337C17.2852 49.3492 20.9265 45.7678 20.9422 41.3336C20.9422 41.3026 20.9422 41.287 20.9422 41.256C20.9422 41.1475 20.9422 41.101 20.9265 40.946H47.8539C47.8539 41.101 47.8539 41.163 47.8539 41.256C47.8383 45.6902 51.4484 49.3027 55.918 49.3182C60.3877 49.3337 64.029 45.7523 64.0447 41.3181C64.0447 41.2871 64.0447 41.2715 64.0447 41.2405C64.0447 41.132 64.0447 41.0855 64.0447 40.9305H66.0607C68.233 40.9305 69.999 39.1785 69.999 37.0234C69.999 37.0079 69.999 36.9924 69.999 36.9614V25.9534C70.0303 24.434 69.0926 22.9921 67.6235 22.3564ZM12.8624 46.2484C10.1118 46.2484 7.89264 44.0468 7.89264 41.3181C7.89264 38.5893 10.1118 36.3877 12.8624 36.3877C15.613 36.3877 17.8322 38.5893 17.8322 41.3181C17.8322 44.0313 15.5973 46.2484 12.8624 46.2484ZM42.9779 37.8916H20.192C18.8792 35.0544 16.0037 33.2404 12.8624 33.2559C9.70551 33.2404 6.84556 35.0389 5.53279 37.8916H3.93872C3.45424 37.8916 3.12605 37.5195 3.12605 37.0389V29.0542H42.9779V37.8916ZM42.9779 7.10026V25.9534H3.12605V7.10026C3.12605 5.28627 4.54821 3.78236 6.37671 3.78236H39.696C41.5245 3.79787 42.9935 5.28627 42.9779 7.08476V7.10026ZM46.1035 12.1546H53.0737C54.3083 12.1391 55.4648 12.8058 56.043 13.9066L59.1687 19.9067H46.1035V12.1546ZM55.9649 46.2484C53.2143 46.2484 50.9951 44.0468 50.9951 41.3181C50.9951 38.5893 53.2143 36.3877 55.9649 36.3877C58.7155 36.3877 60.9347 38.5893 60.9347 41.3181C60.9347 44.0313 58.7155 46.2484 55.9649 46.2484ZM66.889 37.0389C66.889 37.5195 66.5608 37.8916 66.0763 37.8916H63.2945C61.4035 33.876 56.59 32.1396 52.5423 34.0156C50.8232 34.8063 49.4323 36.1862 48.6353 37.8916H46.1035V23.0076H61.4191L66.3889 25.1782C66.7015 25.3332 66.9046 25.6743 66.889 26.0154V37.0389Z" fill="#ED2024"/>
</g>
<defs>
<clipPath id="clip0">
<rect width="70" height="50" fill="white"/>
</clipPath>
</defs>
</svg>
