<svg width="54" height="80" viewBox="0 0 54 80" fill="none" xmlns="http://www.w3.org/2000/svg">
<path d="M52.7902 64.8192C52.143 64.8192 51.6183 65.3439 51.6183 65.9911V77.0089C51.6183 77.3656 51.328 77.6559 50.9713 77.6559H44.6717V54.5783C44.6717 53.9311 44.147 53.4064 43.4998 53.4064C42.8527 53.4064 42.328 53.9311 42.328 54.5783V77.6561H29.6428L33.3214 73.6092C33.7233 73.167 33.9128 72.5372 33.8283 71.9238C33.8267 71.9119 33.8248 71.9 33.8228 71.8881L30.3192 51.1902L31.2631 49.7692C31.785 50.1398 32.187 50.4967 32.9409 50.4967C33.7078 50.4967 34.4248 50.0675 34.7777 49.3609V49.3608L38.473 41.9545L46.8911 45.2147C47.1956 45.3453 51.618 47.3369 51.618 52.5956V60.5222C51.6178 61.1692 52.1425 61.6941 52.7898 61.6941C53.437 61.6941 53.9617 61.1694 53.9617 60.5222V52.5956C53.9617 45.6669 48.0291 43.1483 47.7766 43.0444C47.7692 43.0413 47.7617 43.0383 47.7542 43.0355L33.7436 37.6095V34.3236C35.9689 32.593 37.5119 30.0275 37.8992 27.1006C39.0088 27.0225 40.0383 26.6081 40.8791 25.8852C41.977 24.9409 42.607 23.5667 42.607 22.1155C42.607 20.9111 42.1725 19.7611 41.3981 18.865V14.5239C41.398 6.51547 34.8827 0 26.8742 0C18.8658 0 12.3505 6.51547 12.3505 14.5239V18.9788C11.5678 19.8658 11.1422 20.9577 11.1422 22.1153C11.1422 23.567 11.7719 24.9411 12.8702 25.8855C13.7103 26.6081 14.7392 27.022 15.8484 27.1003C16.2389 30.082 17.8269 32.7431 20.2417 34.497V37.6095L6.24625 43.0353C6.23891 43.0381 6.23156 43.0411 6.22422 43.0441C5.97156 43.148 0.0390625 45.6666 0.0390625 52.5953V77.0086C0.0390625 78.6578 1.38078 79.9995 3.03 79.9995H14.1952C14.8423 79.9995 15.367 79.4748 15.367 78.8277C15.367 78.1805 14.8423 77.6558 14.1952 77.6558H11.6737V54.5783C11.6737 53.9311 11.1491 53.4064 10.5019 53.4064C9.85469 53.4064 9.33 53.9311 9.33 54.5783V77.6561H3.03016C2.67344 77.6561 2.38312 77.3658 2.38312 77.0091V52.5955C2.38312 47.3191 6.83516 45.332 7.10859 45.2152L15.5202 41.9542L19.2158 49.3608C19.5694 50.0691 20.2873 50.4967 21.0527 50.4967C21.8028 50.4967 22.2009 50.1453 22.7305 49.7692L23.6744 51.1902L20.1711 71.8883C20.1691 71.9 20.1673 71.9117 20.1656 71.9236C20.0809 72.5367 20.2705 73.1669 20.6725 73.6094L24.3511 77.6562H19.6644C19.0172 77.6562 18.4925 78.1809 18.4925 78.8281C18.4925 79.4753 19.0172 80 19.6644 80H50.9714C52.6206 80 53.9623 78.6581 53.9623 77.0091V65.9912C53.962 65.3439 53.4373 64.8192 52.7902 64.8192ZM36.2778 41.1045L32.8327 48.0092C32.747 47.9484 30.9212 46.6512 28.6894 45.0664C29.6578 43.8709 28.5248 45.2694 32.9448 39.8138L36.2778 41.1045ZM29.3509 48.4114L28.4575 49.7562H25.5352L24.6417 48.4114L26.9964 46.7391L29.3509 48.4114ZM22.5853 37.9877V35.7945C24.0091 36.3684 25.5306 36.6345 27.0166 36.6345C28.553 36.6345 30.0597 36.307 31.3997 35.7211V37.9972L26.9964 43.4323L22.5853 37.9877ZM40.2631 22.1155C40.263 22.8831 39.9305 23.6095 39.3508 24.1081C38.9675 24.4378 38.5045 24.6486 37.9975 24.7311V19.5003C39.3444 19.7191 40.2631 20.8363 40.2631 22.1155ZM15.7516 24.7311C14.3894 24.51 13.4859 23.3837 13.4859 22.1153C13.4859 20.8625 14.5245 19.8428 15.7516 19.5592V24.7311ZM15.8145 17.1713C15.4413 17.2141 15.0134 17.3152 14.6945 17.4236V14.5239C14.6945 7.80781 20.1583 2.34391 26.8744 2.34391C33.5905 2.34391 39.0542 7.80781 39.0542 14.5239V17.3431C38.7136 17.2395 38.3603 17.1711 37.9977 17.1389C37.9977 16.0081 38.0075 16.2262 34.3083 12.2492C33.628 11.5183 32.5027 11.3652 31.6463 11.9247C27.5634 14.5917 22.583 15.9316 17.9877 15.6016C16.9797 15.5261 16.0616 16.19 15.8145 17.1713ZM18.0955 25.6538V18.3425V17.9573C23.1541 18.2536 28.4577 16.7508 32.7422 14.0069C34.4388 15.8284 35.3575 16.7839 35.6538 17.1473C35.6538 18.0667 35.6538 24.6012 35.6538 25.6536C35.6538 30.4109 31.7747 34.2905 27.0167 34.2905C21.6739 34.2906 18.0955 30.1459 18.0955 25.6538ZM21.1603 48.0092L17.7152 41.1045L21.0422 39.8159L25.2986 45.0698C23.1341 46.6069 21.3567 47.8697 21.1603 48.0092ZM22.5048 72.1409L25.8969 52.0998H28.0955L31.4875 72.1409L26.9963 77.082L22.5048 72.1409Z" fill="#ED2024"/>
</svg>
