<svg width="25" height="25" viewBox="0 0 25 25" fill="none" xmlns="http://www.w3.org/2000/svg">
<path d="M22.9167 3.125H2.08335C0.934326 3.125 0 4.05933 0 5.20835V19.7917C0 20.9407 0.934326 21.875 2.08335 21.875H22.9167C24.0657 21.875 25 20.9407 25 19.7917V5.20835C25 4.05933 24.0657 3.125 22.9167 3.125ZM2.08335 4.16665H22.9167C22.9737 4.16665 23.023 4.19038 23.0775 4.19922L13.0534 12.3377C12.7146 12.5519 12.2304 12.5173 11.9837 12.3652L1.92212 4.19937C1.97676 4.19043 2.02617 4.16665 2.08335 4.16665ZM23.9583 19.7917C23.9583 20.3659 23.4909 20.8333 22.9167 20.8333H2.08335C1.50913 20.8333 1.0417 20.3659 1.0417 19.7917V5.20835C1.0417 5.09189 1.0728 4.98447 1.1082 4.87983L11.3729 13.207C11.7111 13.4257 12.1013 13.5417 12.5 13.5417C12.8845 13.5417 13.2599 13.4343 13.5895 13.2304C13.62 13.2146 13.649 13.1958 13.6754 13.1739L23.8917 4.87959C23.9272 4.98433 23.9583 5.0918 23.9583 5.20835V19.7917H23.9583Z" fill="#ED2024"/>
</svg>
