<svg width="83" height="83" viewBox="0 0 83 83" fill="none" xmlns="http://www.w3.org/2000/svg">
<path d="M73.9219 12.9688H9.07812C7.35896 12.9707 5.71077 13.6545 4.49514 14.8701C3.2795 16.0858 2.5957 17.734 2.59375 19.4531V63.5469C2.5957 65.266 3.2795 66.9142 4.49514 68.1299C5.71077 69.3455 7.35896 70.0293 9.07812 70.0312H73.9219C75.641 70.0293 77.2892 69.3455 78.5049 68.1299C79.7205 66.9142 80.4043 65.266 80.4062 63.5469V19.4531C80.4043 17.734 79.7205 16.0858 78.5049 14.8701C77.2892 13.6545 75.641 12.9707 73.9219 12.9688ZM73.9219 67.4375H9.07812C8.04663 67.4363 7.05772 67.026 6.32834 66.2967C5.59896 65.5673 5.18868 64.5784 5.1875 63.5469V62.2464C6.30831 63.0917 7.67429 63.5483 9.07812 63.5469H14.2656V60.9531H9.07812C8.04663 60.952 7.05771 60.5417 6.32833 59.8123C5.59894 59.0829 5.18867 58.094 5.1875 57.0625V55.7621C6.30831 56.6074 7.67429 57.0639 9.07812 57.0625H73.9219C75.3257 57.0639 76.6917 56.6074 77.8125 55.7621V57.0625C77.8113 58.094 77.401 59.0829 76.6717 59.8123C75.9423 60.5417 74.9534 60.9519 73.9219 60.9531H53.1719V63.5469H73.9219C75.3257 63.5483 76.6917 63.0917 77.8125 62.2464V63.5469C77.8113 64.5784 77.401 65.5673 76.6717 66.2967C75.9423 67.026 74.9534 67.4363 73.9219 67.4375ZM77.8125 50.5781C77.8113 51.6096 77.401 52.5985 76.6717 53.3279C75.9423 54.0573 74.9534 54.4676 73.9219 54.4688H9.07812C8.04663 54.4676 7.05772 54.0573 6.32834 53.3279C5.59896 52.5985 5.18868 51.6096 5.1875 50.5781V19.4531C5.18868 18.4216 5.59896 17.4327 6.32834 16.7033C7.05772 15.974 8.04663 15.5637 9.07812 15.5625H73.9219C74.9534 15.5637 75.9423 15.974 76.6717 16.7033C77.401 17.4327 77.8113 18.4216 77.8125 19.4531V50.5781Z" fill="#202020"/>
<path d="M16.8594 22.0469V19.4531H14.2656V22.0469C14.2652 22.3907 14.1285 22.7203 13.8853 22.9635C13.6422 23.2066 13.3126 23.3434 12.9688 23.3438H10.375V25.9375H12.9688C13.3126 25.9379 13.6422 26.0747 13.8853 26.3178C14.1285 26.5609 14.2652 26.8905 14.2656 27.2344V32.4219C14.2652 32.7657 14.1285 33.0953 13.8853 33.3385C13.6422 33.5816 13.3126 33.7184 12.9688 33.7188H10.375V36.3125H12.9688C13.3126 36.3129 13.6422 36.4497 13.8853 36.6928C14.1285 36.9359 14.2652 37.2655 14.2656 37.6094V42.7969C14.2652 43.1407 14.1285 43.4703 13.8853 43.7135C13.6422 43.9566 13.3126 44.0934 12.9688 44.0938H10.375V46.6875H12.9688C13.3126 46.6879 13.6422 46.8247 13.8853 47.0678C14.1285 47.3109 14.2652 47.6405 14.2656 47.9844V50.5781H16.8594V47.9844C16.8598 47.6405 16.9965 47.3109 17.2397 47.0678C17.4828 46.8247 17.8124 46.6879 18.1562 46.6875H20.75V44.0938H18.1562C17.8124 44.0934 17.4828 43.9566 17.2397 43.7135C16.9965 43.4703 16.8598 43.1407 16.8594 42.7969V37.6094C16.8598 37.2655 16.9965 36.9359 17.2397 36.6928C17.4828 36.4497 17.8124 36.3129 18.1562 36.3125H20.75V33.7188H18.1562C17.8124 33.7184 17.4828 33.5816 17.2397 33.3385C16.9965 33.0953 16.8598 32.7657 16.8594 32.4219V27.2344C16.8598 26.8905 16.9965 26.5609 17.2397 26.3178C17.4828 26.0747 17.8124 25.9379 18.1562 25.9375H20.75V23.3438H18.1562C17.8124 23.3434 17.4828 23.2066 17.2397 22.9635C16.9965 22.7203 16.8598 22.3907 16.8594 22.0469Z" fill="#202020"/>
<path d="M29.8281 22.0469V19.4531H27.2344V22.0469C27.234 22.3907 27.0972 22.7203 26.8541 22.9635C26.611 23.2066 26.2813 23.3434 25.9375 23.3438H23.3438V25.9375H25.9375C26.2813 25.9379 26.611 26.0747 26.8541 26.3178C27.0972 26.5609 27.234 26.8905 27.2344 27.2344V32.4219C27.234 32.7657 27.0972 33.0953 26.8541 33.3385C26.611 33.5816 26.2813 33.7184 25.9375 33.7188H23.3438V36.3125H25.9375C26.2813 36.3129 26.611 36.4497 26.8541 36.6928C27.0972 36.9359 27.234 37.2655 27.2344 37.6094V42.7969C27.234 43.1407 27.0972 43.4703 26.8541 43.7135C26.611 43.9566 26.2813 44.0934 25.9375 44.0938H23.3438V46.6875H25.9375C26.2813 46.6879 26.611 46.8247 26.8541 47.0678C27.0972 47.3109 27.234 47.6405 27.2344 47.9844V50.5781H29.8281V47.9844C29.8285 47.6405 29.9653 47.3109 30.2084 47.0678C30.4515 46.8247 30.7812 46.6879 31.125 46.6875H33.7188V44.0938H31.125C30.7812 44.0934 30.4515 43.9566 30.2084 43.7135C29.9653 43.4703 29.8285 43.1407 29.8281 42.7969V37.6094C29.8285 37.2655 29.9653 36.9359 30.2084 36.6928C30.4515 36.4497 30.7812 36.3129 31.125 36.3125H33.7188V33.7188H31.125C30.7812 33.7184 30.4515 33.5816 30.2084 33.3385C29.9653 33.0953 29.8285 32.7657 29.8281 32.4219V27.2344C29.8285 26.8905 29.9653 26.5609 30.2084 26.3178C30.4515 26.0747 30.7812 25.9379 31.125 25.9375H33.7188V23.3438H31.125C30.7812 23.3434 30.4515 23.2066 30.2084 22.9635C29.9653 22.7203 29.8285 22.3907 29.8281 22.0469Z" fill="#202020"/>
<path d="M42.7969 22.0469V19.4531H40.2031V22.0469C40.2027 22.3907 40.066 22.7203 39.8228 22.9635C39.5797 23.2066 39.2501 23.3434 38.9062 23.3438H36.3125V25.9375H38.9062C39.2501 25.9379 39.5797 26.0747 39.8228 26.3178C40.066 26.5609 40.2027 26.8905 40.2031 27.2344V32.4219C40.2027 32.7657 40.066 33.0953 39.8228 33.3385C39.5797 33.5816 39.2501 33.7184 38.9062 33.7188H36.3125V36.3125H38.9062C39.2501 36.3129 39.5797 36.4497 39.8228 36.6928C40.066 36.9359 40.2027 37.2655 40.2031 37.6094V42.7969C40.2027 43.1407 40.066 43.4703 39.8228 43.7135C39.5797 43.9566 39.2501 44.0934 38.9062 44.0938H36.3125V46.6875H38.9062C39.2501 46.6879 39.5797 46.8247 39.8228 47.0678C40.066 47.3109 40.2027 47.6405 40.2031 47.9844V50.5781H42.7969V47.9844C42.7973 47.6405 42.934 47.3109 43.1772 47.0678C43.4203 46.8247 43.7499 46.6879 44.0938 46.6875H46.6875V44.0938H44.0938C43.7499 44.0934 43.4203 43.9566 43.1772 43.7135C42.934 43.4703 42.7973 43.1407 42.7969 42.7969V37.6094C42.7973 37.2655 42.934 36.9359 43.1772 36.6928C43.4203 36.4497 43.7499 36.3129 44.0938 36.3125H46.6875V33.7188H44.0938C43.7499 33.7184 43.4203 33.5816 43.1772 33.3385C42.934 33.0953 42.7973 32.7657 42.7969 32.4219V27.2344C42.7973 26.8905 42.934 26.5609 43.1772 26.3178C43.4203 26.0747 43.7499 25.9379 44.0938 25.9375H46.6875V23.3438H44.0938C43.7499 23.3434 43.4203 23.2066 43.1772 22.9635C42.934 22.7203 42.7973 22.3907 42.7969 22.0469Z" fill="#202020"/>
<path d="M55.7656 22.0469V19.4531H53.1719V22.0469C53.1715 22.3907 53.0347 22.7203 52.7916 22.9635C52.5485 23.2066 52.2188 23.3434 51.875 23.3438H49.2812V25.9375H51.875C52.2188 25.9379 52.5485 26.0747 52.7916 26.3178C53.0347 26.5609 53.1715 26.8905 53.1719 27.2344V32.4219C53.1715 32.7657 53.0347 33.0953 52.7916 33.3385C52.5485 33.5816 52.2188 33.7184 51.875 33.7188H49.2812V36.3125H51.875C52.2188 36.3129 52.5485 36.4497 52.7916 36.6928C53.0347 36.9359 53.1715 37.2655 53.1719 37.6094V42.7969C53.1715 43.1407 53.0347 43.4703 52.7916 43.7135C52.5485 43.9566 52.2188 44.0934 51.875 44.0938H49.2812V46.6875H51.875C52.2188 46.6879 52.5485 46.8247 52.7916 47.0678C53.0347 47.3109 53.1715 47.6405 53.1719 47.9844V50.5781H55.7656V47.9844C55.766 47.6405 55.9028 47.3109 56.1459 47.0678C56.389 46.8247 56.7187 46.6879 57.0625 46.6875H59.6562V44.0938H57.0625C56.7187 44.0934 56.389 43.9566 56.1459 43.7135C55.9028 43.4703 55.766 43.1407 55.7656 42.7969V37.6094C55.766 37.2655 55.9028 36.9359 56.1459 36.6928C56.389 36.4497 56.7187 36.3129 57.0625 36.3125H59.6562V33.7188H57.0625C56.7187 33.7184 56.389 33.5816 56.1459 33.3385C55.9028 33.0953 55.766 32.7657 55.7656 32.4219V27.2344C55.766 26.8905 55.9028 26.5609 56.1459 26.3178C56.389 26.0747 56.7187 25.9379 57.0625 25.9375H59.6562V23.3438H57.0625C56.7187 23.3434 56.389 23.2066 56.1459 22.9635C55.9028 22.7203 55.766 22.3907 55.7656 22.0469Z" fill="#202020"/>
<path d="M68.7344 22.0469V19.4531H66.1406V22.0469C66.1402 22.3907 66.0035 22.7203 65.7603 22.9635C65.5172 23.2066 65.1876 23.3434 64.8438 23.3438H62.25V25.9375H64.8438C65.1876 25.9379 65.5172 26.0747 65.7603 26.3178C66.0035 26.5609 66.1402 26.8905 66.1406 27.2344V32.4219C66.1402 32.7657 66.0035 33.0953 65.7603 33.3385C65.5172 33.5816 65.1876 33.7184 64.8438 33.7188H62.25V36.3125H64.8438C65.1876 36.3129 65.5172 36.4497 65.7603 36.6928C66.0035 36.9359 66.1402 37.2655 66.1406 37.6094V42.7969C66.1402 43.1407 66.0035 43.4703 65.7603 43.7135C65.5172 43.9566 65.1876 44.0934 64.8438 44.0938H62.25V46.6875H64.8438C65.1876 46.6879 65.5172 46.8247 65.7603 47.0678C66.0035 47.3109 66.1402 47.6405 66.1406 47.9844V50.5781H68.7344V47.9844C68.7348 47.6405 68.8715 47.3109 69.1147 47.0678C69.3578 46.8247 69.6874 46.6879 70.0312 46.6875H72.625V44.0938H70.0312C69.6874 44.0934 69.3578 43.9566 69.1147 43.7135C68.8715 43.4703 68.7348 43.1407 68.7344 42.7969V37.6094C68.7348 37.2655 68.8715 36.9359 69.1147 36.6928C69.3578 36.4497 69.6874 36.3129 70.0312 36.3125H72.625V33.7188H70.0312C69.6874 33.7184 69.3578 33.5816 69.1147 33.3385C68.8715 33.0953 68.7348 32.7657 68.7344 32.4219V27.2344C68.7348 26.8905 68.8715 26.5609 69.1147 26.3178C69.3578 26.0747 69.6874 25.9379 70.0312 25.9375H72.625V23.3438H70.0312C69.6874 23.3434 69.3578 23.2066 69.1147 22.9635C68.8715 22.7203 68.7348 22.3907 68.7344 22.0469Z" fill="#202020"/>
</svg>
