<svg width="44" height="44" viewBox="0 0 44 44" fill="none" xmlns="http://www.w3.org/2000/svg">
<path d="M38.3775 0H5.62246C2.52218 0 0 2.52227 0 5.62255V38.3775C0 41.4777 2.52218 44 5.62246 44H38.3775C41.4778 44 44 41.4777 44 38.3775V5.62255C44 2.52227 41.4778 0 38.3775 0ZM41.4083 38.3775C41.4083 40.0488 40.0487 41.4083 38.3775 41.4083H5.62246C3.95123 41.4083 2.59162 40.0487 2.59162 38.3775V33.6504L11.1213 26.3929C11.4326 26.128 11.8867 26.1255 12.2009 26.3864L17.544 30.8232C18.0592 31.2509 18.8154 31.2159 19.2888 30.7419L31.9843 18.0271C32.2138 17.7972 32.4813 17.7749 32.6209 17.782C32.7601 17.7891 33.0244 17.8388 33.2292 18.091L41.4084 28.1621V38.3775H41.4083ZM41.4083 24.0509L35.2409 16.4569C34.6293 15.7038 33.7227 15.2433 32.7537 15.1936C31.7854 15.1446 30.8358 15.5091 30.1503 16.1958L18.2903 28.0741L13.8567 24.3927C12.5712 23.3252 10.7146 23.3362 9.44187 24.4191L2.59162 30.2476V5.62255C2.59162 3.95132 3.95123 2.5917 5.62246 2.5917H38.3775C40.0488 2.5917 41.4083 3.95132 41.4083 5.62255V24.0509Z" fill="#B0B0B0"/>
<path d="M13.8503 5.41357C10.4047 5.41357 7.60156 8.21685 7.60156 11.6623C7.60156 15.1079 10.4048 17.9111 13.8503 17.9111C17.2959 17.9111 20.0991 15.1079 20.0991 11.6623C20.0991 8.21677 17.296 5.41357 13.8503 5.41357ZM13.8503 15.3195C11.8337 15.3195 10.1932 13.6789 10.1932 11.6623C10.1932 9.64574 11.8337 8.00519 13.8503 8.00519C15.8669 8.00519 17.5075 9.64582 17.5075 11.6623C17.5075 13.6789 15.8669 15.3195 13.8503 15.3195Z" fill="#B0B0B0"/>
</svg>
