<svg width="83" height="84" viewBox="0 0 83 84" fill="none" xmlns="http://www.w3.org/2000/svg">
<path d="M81.7031 63C81.7031 62.6519 81.5665 62.3181 81.3233 62.0719C81.0801 61.8258 80.7502 61.6875 80.4062 61.6875H79.1094V59.0625C79.1072 56.9746 78.2867 54.9728 76.8279 53.4965C75.3691 52.0201 73.3912 51.1897 71.3281 51.1875V33.4687C71.3268 32.2508 70.8481 31.0832 69.9972 30.222C69.1462 29.3608 67.9925 28.8763 66.7891 28.875H16.2109C15.0075 28.8763 13.8538 29.3608 13.0028 30.222C12.1519 31.0832 11.6732 32.2508 11.6719 33.4687V51.1875C9.60883 51.1897 7.63091 52.0201 6.17212 53.4965C4.71332 54.9728 3.89281 56.9746 3.89062 59.0625V61.6875H2.59375C2.2498 61.6875 1.91993 61.8258 1.67672 62.0719C1.43351 62.3181 1.29688 62.6519 1.29688 63V70.875C1.30336 70.9295 1.30336 70.9846 1.29688 71.0391V76.125C1.29688 76.4731 1.43351 76.8069 1.67672 77.0531C1.91993 77.2992 2.2498 77.4375 2.59375 77.4375H6.48438C6.77191 77.4373 7.05126 77.3406 7.27863 77.1624C7.50599 76.9843 7.66852 76.7348 7.74072 76.4531L8.82848 72.1875H74.1715L75.2593 76.4531C75.3315 76.7348 75.494 76.9843 75.7214 77.1624C75.9487 77.3406 76.2281 77.4373 76.5156 77.4375H80.4062C80.7502 77.4375 81.0801 77.2992 81.3233 77.0531C81.5665 76.8069 81.7031 76.4731 81.7031 76.125V71.0391C81.6966 70.9846 81.6966 70.9295 81.7031 70.875V63ZM14.2656 33.4687C14.2661 32.9467 14.4711 32.4462 14.8359 32.0771C15.2006 31.708 15.6951 31.5004 16.2109 31.5H66.7891C67.3049 31.5004 67.7994 31.708 68.1641 32.0771C68.5289 32.4462 68.7339 32.9467 68.7344 33.4687V51.1875H66.1406V47.9062C66.1393 46.6883 65.6606 45.5207 64.8097 44.6595C63.9587 43.7983 62.805 43.3138 61.6016 43.3125H49.9297C48.7263 43.3138 47.5725 43.7983 46.7216 44.6595C45.8706 45.5207 45.392 46.6883 45.3906 47.9062V51.1875H37.6094V47.9062C37.608 46.6883 37.1294 45.5207 36.2784 44.6595C35.4275 43.7983 34.2737 43.3138 33.0703 43.3125H21.3984C20.195 43.3138 19.0413 43.7983 18.1903 44.6595C17.3394 45.5207 16.8607 46.6883 16.8594 47.9062V51.1875H14.2656V33.4687ZM63.5469 47.9062V51.1875H47.9844V47.9062C47.9848 47.3842 48.1899 46.8837 48.5546 46.5146C48.9193 46.1455 49.4139 45.9379 49.9297 45.9375H61.6016C62.1174 45.9379 62.6119 46.1455 62.9766 46.5146C63.3414 46.8837 63.5464 47.3842 63.5469 47.9062ZM35.0156 47.9062V51.1875H19.4531V47.9062C19.4536 47.3842 19.6586 46.8837 20.0234 46.5146C20.3881 46.1455 20.8826 45.9379 21.3984 45.9375H33.0703C33.5861 45.9379 34.0807 46.1455 34.4454 46.5146C34.8101 46.8837 35.0152 47.3842 35.0156 47.9062ZM6.48438 59.0625C6.48592 57.6706 7.03295 56.3361 8.00546 55.3519C8.97797 54.3677 10.2965 53.8141 11.6719 53.8125H71.3281C72.7035 53.8141 74.022 54.3677 74.9945 55.3519C75.967 56.3361 76.5141 57.6706 76.5156 59.0625V61.6875H6.48438V59.0625ZM5.4793 74.8125H3.89062V72.3516H6.10666L5.4793 74.8125ZM79.1094 74.8125H77.5207L76.8933 72.3516H79.1094V74.8125ZM79.1094 69.5625H3.89062V64.3125H79.1094V69.5625Z" fill="#202020"/>
<path d="M41.5 24.9375C43.2955 24.9375 45.0506 24.3987 46.5435 23.3891C48.0364 22.3796 49.2 20.9447 49.8871 19.2659C50.5742 17.5871 50.754 15.7398 50.4037 13.9576C50.0534 12.1754 49.1888 10.5384 47.9192 9.25346C46.6496 7.96857 45.032 7.09354 43.2711 6.73904C41.5101 6.38454 39.6848 6.56648 38.026 7.26186C36.3671 7.95724 34.9493 9.13483 33.9518 10.6457C32.9543 12.1566 32.4219 13.9329 32.4219 15.75C32.4246 18.1858 33.3819 20.5211 35.0838 22.2435C36.7857 23.9659 39.0932 24.9348 41.5 24.9375ZM41.5 9.1875C42.7825 9.1875 44.0362 9.57239 45.1025 10.2935C46.1689 11.0146 47 12.0395 47.4908 13.2386C47.9816 14.4378 48.11 15.7573 47.8598 17.0303C47.6096 18.3033 46.992 19.4726 46.0851 20.3904C45.1783 21.3082 44.0229 21.9332 42.765 22.1864C41.5072 22.4396 40.2034 22.3097 39.0185 21.813C37.8337 21.3163 36.821 20.4751 36.1084 19.3959C35.3959 18.3167 35.0156 17.0479 35.0156 15.75C35.0176 14.0101 35.7013 12.3421 36.917 11.1118C38.1326 9.88149 39.7808 9.18946 41.5 9.1875Z" fill="#202020"/>
<path d="M40.92 16.9239L43.5137 18.2364C43.6662 18.315 43.8326 18.3624 44.0032 18.3757C44.1739 18.389 44.3454 18.368 44.508 18.3139C44.6706 18.2597 44.821 18.1736 44.9505 18.0603C45.0801 17.9471 45.1862 17.809 45.2627 17.6541C45.3393 17.4992 45.3848 17.3304 45.3966 17.1576C45.4084 16.9848 45.3863 16.8114 45.3315 16.6472C45.2768 16.4831 45.1905 16.3316 45.0776 16.2014C44.9647 16.0712 44.8274 15.9649 44.6738 15.8886L42.7969 14.9389V11.8125C42.7969 11.4644 42.6602 11.1306 42.417 10.8844C42.1738 10.6383 41.8439 10.5 41.5 10.5C41.156 10.5 40.8262 10.6383 40.583 10.8844C40.3398 11.1306 40.2031 11.4644 40.2031 11.8125V15.75C40.2031 15.9937 40.2702 16.2326 40.3968 16.44C40.5234 16.6473 40.7046 16.8149 40.92 16.9239Z" fill="#202020"/>
</svg>
