<svg width="76" height="76" viewBox="0 0 76 76" fill="none" xmlns="http://www.w3.org/2000/svg">
<path d="M20.5 5.5H23V8H20.5V5.5Z" fill="#ED2024"/>
<path d="M25.5 5.5H35.5V8H25.5V5.5Z" fill="#ED2024"/>
<path d="M49.2501 54.25C49.2481 55.907 48.589 57.4956 47.4173 58.6672C46.2456 59.8389 44.6571 60.498 43.0001 60.5H20.1651L24.4626 53.0575C24.3266 53.4406 24.2548 53.8435 24.2501 54.25C24.2501 55.2446 24.6451 56.1984 25.3484 56.9016C26.0517 57.6049 27.0055 58 28.0001 58H33.0001C33.9946 58 34.9485 57.6049 35.6517 56.9016C36.355 56.1984 36.7501 55.2446 36.7501 54.25C36.7501 53.2554 36.355 52.3016 35.6517 51.5984C34.9485 50.8951 33.9946 50.5 33.0001 50.5H28.0001C27.4049 50.5011 26.8186 50.6443 26.2898 50.9175C25.7611 51.1908 25.3052 51.5863 24.9601 52.0713C25.4565 50.9018 25.4879 49.587 25.0479 48.3952C24.6079 47.2034 23.7297 46.2244 22.5925 45.658C21.4553 45.0916 20.1448 44.9806 18.9285 45.3475C17.7122 45.7144 16.6818 46.5317 16.0476 47.6325L11.7976 54.9975C11.7667 54.7495 11.7509 54.4999 11.7501 54.25V9.25C11.752 7.59301 12.4112 6.00445 13.5828 4.83278C14.7545 3.6611 16.3431 3.00198 18.0001 3H43.0001C44.0966 3.00255 45.1734 3.29241 46.1231 3.84071C47.0727 4.38901 47.8621 5.1766 48.4126 6.125L50.5763 4.875C49.8058 3.54742 48.7008 2.44492 47.3715 1.67731C46.0423 0.909701 44.535 0.503786 43.0001 0.5H18.0001C15.6802 0.502647 13.4562 1.42537 11.8158 3.06574C10.1754 4.70611 9.25271 6.93017 9.25006 9.25V33.375C8.45459 33.7452 7.8141 34.3826 7.44006 35.1763L1.76631 47.485C0.926392 49.2905 0.494085 51.2587 0.500061 53.25V75.5H3.00006V53.25C2.99448 51.6218 3.34787 50.0124 4.03506 48.5363L9.25006 37.2213V54.25C9.24921 55.743 9.63185 57.2111 10.3613 58.5137C10.4554 58.7245 10.606 58.9051 10.7965 59.0355C10.9869 59.1659 11.2098 59.241 11.4403 59.2525C11.6708 59.264 11.9 59.2115 12.1025 59.1007C12.305 58.99 12.4729 58.8253 12.5876 58.625L18.2126 48.8825C18.5464 48.313 19.092 47.8986 19.7303 47.7299C20.3685 47.5612 21.0476 47.6517 21.6193 47.9818C22.191 48.3119 22.609 48.8547 22.7819 49.4918C22.9549 50.1289 22.8689 50.8086 22.5426 51.3825L16.9176 61.125C16.8058 61.3184 16.7479 61.5382 16.7499 61.7615C16.7519 61.9849 16.8136 62.2036 16.9288 62.395L19.6063 66.845C20.1904 67.8185 20.4993 68.9322 20.5001 70.0675V75.4875H23.0001V70.0675C22.9999 68.4787 22.5678 66.9198 21.7501 65.5575L20.2113 63H43.0001C45.3199 62.9974 47.544 62.0746 49.1843 60.4343C50.8247 58.7939 51.7474 56.5698 51.7501 54.25V48H49.2501V54.25ZM28.0001 53H33.0001C33.3316 53 33.6495 53.1317 33.8839 53.3661C34.1184 53.6005 34.2501 53.9185 34.2501 54.25C34.2501 54.5815 34.1184 54.8995 33.8839 55.1339C33.6495 55.3683 33.3316 55.5 33.0001 55.5H28.0001C27.6685 55.5 27.3506 55.3683 27.1162 55.1339C26.8818 54.8995 26.7501 54.5815 26.7501 54.25C26.7501 53.9185 26.8818 53.6005 27.1162 53.3661C27.3506 53.1317 27.6685 53 28.0001 53Z" fill="#ED2024"/>
<path d="M71.8888 15.2748C69.0775 11.2509 64.8847 8.40139 60.1085 7.26875C55.3323 6.13611 50.3064 6.79948 45.9876 9.13256C41.6689 11.4656 38.3589 15.3055 36.688 19.921C35.0171 24.5365 35.1019 29.6053 36.9263 34.1623L32.7013 41.3248C32.5794 41.531 32.5193 41.7678 32.5282 42.0072C32.5371 42.2465 32.6145 42.4783 32.7513 42.6748C32.8916 42.871 33.0847 43.0234 33.3082 43.1141C33.5317 43.2048 33.7764 43.2302 34.0138 43.1873L42.1763 41.6623C44.9479 44.147 48.3602 45.8055 52.0263 46.4498C53.1783 46.6479 54.3449 46.7482 55.5138 46.7498C59.1725 46.7488 62.7608 45.7442 65.8881 43.8453C69.0155 41.9465 71.5621 39.2262 73.2507 35.9804C74.9393 32.7347 75.7052 29.088 75.465 25.4372C75.2249 21.7864 73.9879 18.2714 71.8888 15.2748ZM72.7388 29.7873C72.189 32.9056 70.8035 35.8163 68.7299 38.2092C66.6564 40.6021 63.9724 42.3876 60.9641 43.3754C57.9557 44.3632 54.7358 44.5163 51.6473 43.8184C48.5588 43.1205 45.7175 41.5977 43.4263 39.4123C43.1918 39.1947 42.8836 39.0741 42.5638 39.0748C42.4886 39.0728 42.4133 39.077 42.3388 39.0873L36.2513 40.2248L39.4013 34.8998C39.4992 34.7283 39.5568 34.5368 39.5698 34.3397C39.5828 34.1427 39.5508 33.9452 39.4763 33.7623C38.0821 30.6073 37.66 27.1084 38.2638 23.7123C39.0694 19.1407 41.6581 15.0763 45.4604 12.4133C47.3431 11.0947 49.4671 10.1598 51.7111 9.66207C53.9551 9.16433 56.2751 9.11345 58.5388 9.51234C60.8024 9.91123 62.9654 10.7521 64.9041 11.9869C66.8428 13.2217 68.5193 14.8262 69.8379 16.7089C71.1565 18.5916 72.0913 20.7156 72.5891 22.9596C73.0868 25.2036 73.1377 27.5237 72.7388 29.7873Z" fill="#ED2024"/>
<path d="M64.25 19.25H60.5V18C60.5 16.6739 59.9732 15.4021 59.0355 14.4645C58.0979 13.5268 56.8261 13 55.5 13C54.1739 13 52.9021 13.5268 51.9645 14.4645C51.0268 15.4021 50.5 16.6739 50.5 18V19.25H46.75C46.4185 19.25 46.1005 19.3817 45.8661 19.6161C45.6317 19.8505 45.5 20.1685 45.5 20.5V35.5C45.503 36.4936 45.899 37.4458 46.6016 38.1484C47.3042 38.851 48.2564 39.247 49.25 39.25H61.75C62.7436 39.247 63.6958 38.851 64.3984 38.1484C65.101 37.4458 65.497 36.4936 65.5 35.5V20.5C65.5 20.1685 65.3683 19.8505 65.1339 19.6161C64.8995 19.3817 64.5815 19.25 64.25 19.25ZM53 18C53 17.337 53.2634 16.7011 53.7322 16.2322C54.2011 15.7634 54.837 15.5 55.5 15.5C56.163 15.5 56.7989 15.7634 57.2678 16.2322C57.7366 16.7011 58 17.337 58 18V19.25H53V18ZM63 35.5C63 35.8315 62.8683 36.1495 62.6339 36.3839C62.3995 36.6183 62.0815 36.75 61.75 36.75H49.25C48.9185 36.75 48.6005 36.6183 48.3661 36.3839C48.1317 36.1495 48 35.8315 48 35.5V34.25H63V35.5ZM63 31.75H48V21.75H50.5V24.25H53V21.75H58V24.25H60.5V21.75H63V31.75Z" fill="#ED2024"/>
<path d="M25.8685 17.1162L23.9435 19.0412C22.6478 18.1836 21.0797 17.8378 19.5435 18.0708C18.0072 18.3038 16.6122 19.0991 15.6291 20.3024C14.646 21.5057 14.1448 23.0312 14.2227 24.5831C14.3007 26.135 14.9522 27.6026 16.0509 28.7013C17.1497 29.8 18.6173 30.4516 20.1692 30.5295C21.7211 30.6074 23.2466 30.1062 24.4499 29.1231C25.6531 28.14 26.4484 26.745 26.6815 25.2088C26.9145 23.6725 26.5687 22.1044 25.711 20.8087L27.636 18.8837L25.8685 17.1162ZM24.2523 24.25C24.2523 24.9916 24.0324 25.7167 23.6203 26.3333C23.2082 26.95 22.6226 27.4307 21.9373 27.7145C21.2521 27.9983 20.4981 28.0726 19.7707 27.9279C19.0433 27.7832 18.3751 27.4261 17.8506 26.9016C17.3262 26.3772 16.969 25.709 16.8243 24.9815C16.6796 24.2541 16.7539 23.5001 17.0377 22.8149C17.3216 22.1297 17.8022 21.544 18.4189 21.1319C19.0356 20.7199 19.7606 20.5 20.5023 20.5C21.0591 20.5021 21.6083 20.6303 22.1085 20.875L18.3685 24.615L20.136 26.3825L23.8773 22.6437C24.1219 23.144 24.2501 23.6931 24.2523 24.25Z" fill="#ED2024"/>
<path d="M29.25 20.5H34.25V23H29.25V20.5Z" fill="#ED2024"/>
<path d="M29.25 25.5H34.25V28H29.25V25.5Z" fill="#ED2024"/>
</svg>
