<svg width="63" height="63" viewBox="0 0 63 63" fill="none" xmlns="http://www.w3.org/2000/svg">
<path d="M62.9999 22.9904V18.6661C62.9999 18.4746 62.9552 18.2857 62.8692 18.1144L57.3397 7.09141V3.69139C57.3397 1.65596 55.6838 0 53.6484 0H9.35165C7.31622 0 5.66026 1.65596 5.66026 3.69139V7.09141L0.130675 18.1144C0.0447889 18.2857 0 18.4746 0 18.6661V22.9904C0 25.6304 1.85148 27.8463 4.32422 28.4076V54.3868H3.69152C1.65608 54.3868 0.000123046 56.0427 0.000123046 58.0781V61.7695C0.000123046 62.4491 0.551002 63 1.23059 63H61.7694C62.4489 63 62.9999 62.4491 62.9999 61.7695V58.0781C62.9999 56.0427 61.3439 54.3868 59.3086 54.3868H58.6758V28.4076C61.1484 27.8463 62.9999 25.6306 62.9999 22.9904ZM57.4453 26.0841C55.7405 26.0841 54.3527 24.6971 54.3516 22.9924C54.3516 22.9894 54.3514 22.9864 54.3514 22.9833V19.8966H60.539V22.9904C60.539 24.6963 59.1511 26.0841 57.4453 26.0841ZM7.65004 8.61325H12.1786L9.01315 17.4357H3.22443L7.65004 8.61325ZM55.35 8.61325L59.7756 17.4357H53.9867L50.8212 8.61325H55.35ZM51.8906 22.9971C51.7105 27.1032 45.8606 27.0858 45.703 22.9809V19.8966H51.8905V22.9904C51.8905 22.9927 51.8906 22.9949 51.8906 22.9971ZM19.7579 19.8966H25.9454V22.9904C25.775 27.0957 19.9269 27.0925 19.7579 22.9904V19.8966ZM28.4064 19.8966H34.5936V22.9904C34.5936 22.9928 34.5938 22.9953 34.5938 22.9977C34.4139 27.0975 28.5748 27.0882 28.4064 22.9904V19.8966ZM37.0546 19.8966H43.2421V22.9904C43.2421 22.9924 43.2422 22.9945 43.2422 22.9966C43.0644 27.0952 37.2286 27.0896 37.0547 22.9942C37.0547 22.9913 37.0546 22.9884 37.0546 22.9856V19.8966ZM48.2068 8.61325L51.3722 17.4357H45.4664L43.5672 8.61325H48.2068ZM41.0498 8.61325L42.9491 17.4357H36.9695L36.3365 8.61325H41.0498ZM33.8691 8.61325L34.5022 17.4357H28.4978L29.1309 8.61325H33.8691ZM26.0306 17.4357H20.051L21.9502 8.61325H26.6637L26.0306 17.4357ZM17.5337 17.4357H11.6278L14.7933 8.61325H19.433L17.5337 17.4357ZM17.297 19.8966V22.9904C17.1266 27.0957 11.2784 27.0925 11.1095 22.9904V19.8966H17.297ZM12.9373 28.3996C14.9919 28.9117 17.2875 28.0677 18.5275 26.4733C20.6802 29.2198 25.0242 29.2187 27.1759 26.4733C29.3291 29.2201 33.672 29.2187 35.8242 26.4724C37.9778 29.2198 42.3205 29.219 44.4727 26.4733C45.7122 28.0676 48.0086 28.912 50.0628 28.3996V48.1111H12.9373V28.3996ZM8.12119 3.69139C8.12119 3.01291 8.67317 2.46093 9.35165 2.46093H53.6484C54.3268 2.46093 54.8788 3.01291 54.8788 3.69139V6.15232H8.12119V3.69139ZM2.46093 22.9904V19.8966H8.64844V22.9904C8.47802 27.0957 2.62987 27.0925 2.46093 22.9904ZM60.5388 58.078V60.5389H2.46093V58.078C2.46093 57.3995 3.01291 56.8476 3.69139 56.8476H59.3084C59.987 56.8477 60.5388 57.3997 60.5388 58.078ZM6.78515 54.3868V28.4077C8.02386 28.1266 9.10666 27.4301 9.87903 26.4732C10.0615 26.6993 10.2613 26.9109 10.4764 27.1058V49.3414C10.4764 50.0209 11.0273 50.5718 11.7069 50.5718H51.2932C51.9727 50.5718 52.5237 50.0209 52.5237 49.3414V27.1054C52.7388 26.9104 52.9386 26.6989 53.1211 26.4727C53.8933 27.4297 54.9763 28.1263 56.2149 28.4076V54.3866H6.78515V54.3868Z" fill="#ED2024"/>
<path d="M38.9252 32.7881H36.8409C36.284 32.7881 35.7966 33.1622 35.6524 33.7001L33.5872 41.4075H26.5344L25.6778 38.2111H31.4415C33.0741 38.146 33.0728 35.8147 31.4415 35.7502H24.0743C23.6917 35.7502 23.331 35.9281 23.098 36.2317C22.8651 36.5351 22.7867 36.9297 22.8857 37.2992L24.4016 42.9566C24.5457 43.4945 25.0332 43.8686 25.5901 43.8686H34.5313C35.0882 43.8686 35.5757 43.4945 35.7198 42.9566L37.785 35.2491H38.9253C40.5578 35.1839 40.5565 32.8524 38.9252 32.7881Z" fill="#ED2024"/>
</svg>
