<svg width="23" height="23" viewBox="0 0 23 23" fill="none" xmlns="http://www.w3.org/2000/svg">
<g clip-path="url(#clip0)">
<path d="M4.68621 15.2889C6.95476 18.0006 9.68559 20.1357 12.8025 21.6465C13.9892 22.2089 15.5762 22.8761 17.3443 22.9905C17.4539 22.9952 17.5588 23 17.6684 23C18.8551 23 19.8083 22.5901 20.5851 21.7466C20.5899 21.7418 20.5994 21.7323 20.6042 21.7227C20.8806 21.3891 21.1951 21.0889 21.524 20.7696C21.748 20.5551 21.9767 20.3311 22.1959 20.1024C23.2111 19.0443 23.2111 17.7004 22.1864 16.6757L19.3221 13.8114C18.836 13.3063 18.2546 13.0394 17.6446 13.0394C17.0345 13.0394 16.4483 13.3063 15.9479 13.8067L14.2417 15.5128C14.0845 15.4223 13.9224 15.3413 13.7699 15.265C13.5793 15.1697 13.403 15.0792 13.2457 14.9791C11.692 13.9925 10.2813 12.7058 8.93259 11.052C8.25107 10.1894 7.79355 9.46498 7.47424 8.72627C7.92223 8.32118 8.34162 7.89702 8.74672 7.48239C8.88969 7.33465 9.03744 7.1869 9.18518 7.03916C9.69989 6.52445 9.97631 5.92872 9.97631 5.32346C9.97631 4.71819 9.70465 4.12246 9.18518 3.60775L7.76495 2.18753C7.59815 2.02072 7.44088 1.85868 7.27884 1.69188C6.96429 1.3678 6.63545 1.03419 6.31137 0.733941C5.82049 0.25259 5.24382 0 4.63379 0C4.02853 0 3.44709 0.25259 2.93715 0.738707L1.15472 2.52114C0.506562 3.16929 0.139591 3.95566 0.0633376 4.86593C-0.0272136 6.00497 0.182484 7.2155 0.725791 8.67862C1.55981 10.9424 2.818 13.0441 4.68621 15.2889ZM1.22621 4.96602C1.2834 4.33216 1.52645 3.80315 1.98398 3.34563L3.75687 1.57273C4.03329 1.30584 4.33831 1.16763 4.63379 1.16763C4.92451 1.16763 5.21999 1.30584 5.49164 1.58226C5.81095 1.87775 6.1112 2.18753 6.43528 2.51637C6.59732 2.68317 6.76412 2.84998 6.93093 3.02155L8.35115 4.44177C8.64664 4.73726 8.79914 5.03751 8.79914 5.33299C8.79914 5.62847 8.64664 5.92872 8.35115 6.2242C8.20341 6.37194 8.05567 6.52445 7.90793 6.67219C7.4647 7.12018 7.05008 7.54434 6.59255 7.94944C6.58302 7.95897 6.57826 7.96374 6.56872 7.97327C6.17316 8.36884 6.23512 8.74534 6.33043 9.03129C6.3352 9.04559 6.33996 9.05512 6.34473 9.06942C6.7117 9.9511 7.22165 10.7899 8.01754 11.7907C9.4473 13.5541 10.9533 14.9219 12.6118 15.9751C12.8168 16.1086 13.036 16.2134 13.2409 16.3183C13.4315 16.4136 13.6079 16.5041 13.7652 16.6042C13.7842 16.6138 13.7985 16.6233 13.8176 16.6328C13.9749 16.7138 14.1274 16.752 14.2799 16.752C14.6611 16.752 14.909 16.5089 14.99 16.4279L16.7724 14.6455C17.0488 14.369 17.3491 14.2213 17.6446 14.2213C18.0068 14.2213 18.3022 14.4453 18.4881 14.6455L21.3619 17.5145C21.9338 18.0864 21.9291 18.706 21.3476 19.3112C21.1475 19.5257 20.9378 19.7306 20.7138 19.9451C20.3802 20.2692 20.0323 20.6028 19.7177 20.9793C19.1696 21.5702 18.5167 21.8467 17.6732 21.8467C17.5921 21.8467 17.5064 21.8419 17.4253 21.8371C15.8621 21.737 14.4085 21.127 13.3172 20.6075C10.3528 19.173 7.75066 17.138 5.59172 14.5549C3.81406 12.415 2.61783 10.4229 1.8267 8.28782C1.33582 6.97721 1.14995 5.92395 1.22621 4.96602Z" fill="#ED2024"/>
</g>
<defs>
<clipPath id="clip0">
<rect width="23" height="23" fill="white"/>
</clipPath>
</defs>
</svg>
